# xmcd
#
# Track frame offsets: 
#        150
#        13950
#        28987
#        41362
#        59775
#        76800
#        86775
#        99075
#        110850
#        124387
#        135900
#        150825
#        165300
#
# Disc length: 2355 seconds
#
# Revision: 2
# Processed by: cddbd v1.5.2PL0 Copyright (c) Steve Scherf et al.
# Submitted via: ExactAudioCopyFreeDBPlugin 1.0
#
DISCID=a009310d
DTITLE=Brownie McGhee and Sonny Terry - Brownie McGhee and Sonny Terry
DTITLE=Sing
DYEAR=1990
DGENRE=Blues
TTITLE0=Better Day
TTITLE1=Confusion
TTITLE2=Dark Road
TTITLE3=John Henry
TTITLE4=Make a Little Money
TTITLE5=Old Jabo
TTITLE6=If You Lose Your Money
TTITLE7=Guitar Highway
TTITLE8=Heart in Sorrow
TTITLE9=Preachin' the Blues
TTITLE10=Can't Help Myself
TTITLE11=Best of Friends
TTITLE12=Boogie Baby
EXTD=
EXTT0=
EXTT1=
EXTT2=
EXTT3=
EXTT4=
EXTT5=
EXTT6=
EXTT7=
EXTT8=
EXTT9=
EXTT10=
EXTT11=
EXTT12=
PLAYORDER=
